<mxfile host="65bd71144e">
    <diagram id="HIP3nbAZw_EuaXWnEj3U" name="Page-1">
        <mxGraphModel dx="835" dy="570" grid="1" gridSize="10" guides="1" tooltips="1" connect="1" arrows="1" fold="1" page="1" pageScale="1" pageWidth="850" pageHeight="1100" math="0" shadow="0">
            <root>
                <mxCell id="0"/>
                <mxCell id="1" parent="0"/>
                <mxCell id="7" value="http://ics2o.mths.ca" style="swimlane;whiteSpace=wrap;html=1;" vertex="1" parent="1">
                    <mxGeometry x="30" y="80" width="780" height="420" as="geometry"/>
                </mxCell>
                <mxCell id="8" value="&lt;span style=&quot;font-size: 16px;&quot;&gt;Cookie clicker&lt;/span&gt;" style="rounded=0;whiteSpace=wrap;html=1;" vertex="1" parent="7">
                    <mxGeometry y="20" width="770" height="40" as="geometry"/>
                </mxCell>
                <mxCell id="11" value="cookie clicked 5" style="text;html=1;strokeColor=none;fillColor=none;align=center;verticalAlign=middle;whiteSpace=wrap;rounded=0;fontSize=16;" vertex="1" parent="7">
                    <mxGeometry x="33" y="220" width="137" height="30" as="geometry"/>
                </mxCell>
                <mxCell id="12" value="&lt;font style=&quot;font-size: 16px;&quot;&gt;Click the cookie and it will show how many times you click the cookie&lt;/font&gt;" style="text;html=1;strokeColor=none;fillColor=none;align=center;verticalAlign=middle;whiteSpace=wrap;rounded=0;" vertex="1" parent="7">
                    <mxGeometry x="20" y="140" width="490" height="30" as="geometry"/>
                </mxCell>
                <mxCell id="18" value="" style="shape=image;verticalLabelPosition=bottom;labelBackgroundColor=default;verticalAlign=top;aspect=fixed;imageAspect=0;image=data:image/jpeg,/9j/4AAQSkZJRgABAQAAAQABAAD/2wCEAAkGBxMTEhUSEhMVFhUXGRgXFRcYFxUVGRcdFxcXGBUYGBgYHSggGBolHRUWITEhJSkrLi4uGB8zODMtNygtLisBCgoKDg0OGxAQGy0mICUvLTUyLy0tLS0tLS01LS0tLS0tLS0tLS0vLS0tLS0tLS0tLS0tLS0tLS0tLS0tLS0tLf/AABEIAOEA4QMBIgACEQEDEQH/xAAcAAAABwEBAAAAAAAAAAAAAAAAAQIDBAUGBwj/xAA/EAABAwIEBAMECQIFBAMAAAABAAIRAyEEBRIxBkFRYRMicTKBkaEHFCNCUrHB4fDR8RYzNGJyFUOCknOisv/EABkBAAIDAQAAAAAAAAAAAAAAAAIEAAEDBf/EAC4RAAICAQQBBAEDAgcAAAAAAAABAhEDBBIhMUETIjJRcWGBoSNCBRRSYrHB8P/aAAwDAQACEQMRAD8A6+HJQcoElGKpWQZYakYcq8YgpQrlSyiwD0RqKD4pStUoZz2qy4xtjz6vdMUsUCYQbSH4vcogw3nkSFzsuoy8bRuGKHNlo7EAJ1mKBEqo+qnUC5/aAEjETRY9zjLQJshWsyp21wV6EHwnyWH/AFGT5RbqjOIPVZDI8w1Bxm0nTKuTidUSYKyhrpTXuZvLTKL4RaeKlNfKgUq0jfZK1LVZb5A9MnhHqHVRmV+oTuoFpAC0U0zJxa7D+tC9xARtrtOxWUx+VVGedhD+RDTDhJ3uYKZiu2BDyNwdx6T1V4s2V+V+LNJYcfg2oIKS5qy9DN3tgOae9j+SuqeZCGiCSexWy1bi6mjGWm/0kh4UeoE74wdsHe8EJDgnFNS6MHFrsjPKZc+FJdTTL6Kvkg0MQU62sDzTL6SYc2FVl0WbHpzUqcVyE/TxQRWU4lhqQUTxggpZW00JwwTbsIpiCsErzgkPqasEFKIUuPOiLXKoOJcbUY1hpkghzTA+9G7feFqM5wrnNBYJc3kuZcWcTnDw0geJBO9x0aI29Vzs+LJPI1dLgewShGKfki081zA4kB3hsaT7DntbAJt3+K6Nlr6hZNYs5RokxHUlcpr5Fj64biG0m7T4bngOIPrbbut7wo+s3CsbXY5tQNhwsZ94JlKZMcISuIw5b40aSnUBIdv0Tj9r3/nNVJrlpDIN/Z9AJU+hW6mVUMt8MxlCuUE7K6Tm2aGneWgAqjz3LMSxurD6XgXgjzH05StFSMTPu+CRUxM7AmN1U8eOUeVTJCc0+CkwNfQwCqfNA1Wi5UnDVD5nH2QE5jqbTSe94MBhn8UATE+5c3p8avqAtpSCARFr2t2Jt8is4aeb5T4N96aOhOxJ0awPamB2RZVm/iHTaY8w/D6rnGF+kt5eGuANPrpAcQG+YgSIM7BXfD+KxTK1SoaDm0nsDqZ0ku1SZDo2MRYqpYMmOSbfH/JLUlVG2rU52AHf1/NP4ajpEKFga9Q0wap0uN4O4HIHuoPFeOfSwj30yA+WhrnCQC4xeDzmJNrhFjqTVLkCV1Rf0MU1xI2KUawXFqfFWIJP2tyfw/1KuqfFeKFSiD4b/E0taAIJk6ZIJtJO+2y13ZEuUX6MW+GdSaFFfiWgw6x2nkoGEo1rOe7SeYBnntPoqPiDJcR4lXEmoSxseHTbsGaTqJH49XPoixZZuXVGbhHpuzYliSWLLcH8Qa3fVqh83/bJ58y35WWv0rrY57o2JZIOEqIj6Sj1MOrM00l1JHQCZSVMOmjRV46imXUVW0JSKnwigrTwkFNpe4ewOctfsVcUqkhYXhQBzA4LZ4Z0JXBqNzpmubCo9EpBAFBOCwTzAJ6BcZdw83En63WbUaTUc7RoIJDajtBveNIb6rsGMeQ225t/VU9Z7Ru4Tv6JLV5tvFjWnj5M3RzR9Gtoq+w8jQ7kJEaT74j3qyq5i0eWR3nvuonGeJw4oaKzHkVB5S0CQW3mSbclzh+PYTbX73udvzMlILFKXkcVfR0vEZkJuQOl1Oy7EU3W16uZANh8Lri2KzJ3mkvN9UudLWxaQIsrn6LKo+sYn7UBgY2x3e4zMH/bF/UKT0+2LlfRLT9p1zEw4ANeR05+m+6g4jPsPScaBf8AaNALvKXG4kbcz0TeEGuYIEbDqsDxxivAxlKsxzHP0RUYST7DjoLotzIHPyqsH9Rv9QJR28HQsFjRWaXCCLCJIN59pvIn8guBYiror1GM1MaCdbNLpaATqILrwGg+Y8veujcJcS6qtZ1R4AI1Cn1Eky0RHlje1oWWbljsbWq/VmtDy0F7yHOu5vmYJMATrA5wEziisd2+CpK3wT+DMpwtSs7EYhrY8vgt1OGgxOo7S7bf1XSaWJAs2SD1j9Oy5VkeHr4RzG5hQ+yd5Q7VcX/Ex14nnePRaqpTr0JqUHeLSDS7S4y4Dnbcx2PuSGplJ5O/wbQraaxlW57o31mPBpVGgscIc081lOFuK/GqeHVZDjJDgIEDeZO6n1sxY/7egTUY0EObGkgtmfaI3gcjv3WKjOL47KbXkwvE/DFTCVtbSH4dzvI6RN/uOG+rlMQVd8A5FVqVRjMQPLvSZvYDySeg5BMfR/mT8XXrGsQ6g6XFjgNMT5WD8QHPqupYOowgCnAaB5YAiOUJ7Lkfwl2AnStDlN5nt0Ssdq8NwY3US06RIEmLAk7I4OqI9D+Y7FPhtrqQXDMpNHI2VvMyoGltRph/IsewwWnlMg+q6tlOLFak2oOYv2PMKrxmQUneKSCPFLS+CYJaReORty6qdw3hPDZpEgEudB5Anyj4Qm8GT3L9Ss9ShZYoSnXMTbmLoCI2SmnJbmppwUIJQQQULsy/CtcNaAVsKFWVj2ZQ9lwVcZbiuR3C4WOMo8+DqZUpdGkp1E8HKvY/mpVNy6uDJuRz8kKIOd1Y0jrKqKdMlxDhaAJt8Ve5mBoJIBIuOo6wqGs8ucCwwY587dFz9ZjXq7mO6Z3jpFFx5T10HaZ8oBE89wfkVynL6/nAPW8/zsu3Y2iypSJcBJ39e3RYTDcH1G4g16bqYY10/aN8TXqs4RIA5nV32KrDmUbUvyHKPHBMOR/W9NGlT00gZrPI0h0DygfjvyFr35IYj6MdFMtoPk6y8avKWzsGlo5QN/it1QqDV5Tbp+im1qhDNQuem/yQZM7yX9L6ApxaMjwngMZTZprNcXC/mLbxYt1CRfeVzjjapiTiqxq0wNNQsAaGgNbHiNDnNAklrtRJ79F1nHcTNptBkFxiGSAT+K29uq5t9JWesqEBsCsWhrgBBDXXvF7iPlyJU0c4t+1dhZN3cjHZlj3U8VVLNRpuJFMERLD7MEjpIJ9VruCuKvDaaZEiSWuMyCZJBncXMLNZLXYIpVqflvJBl0gTzsLgfNWuAa0OadMtBJJIAJE2Hay21M4uO1orHd3ZucxzOlicO9tTUbEts4S7YabQTfbusfTz+rhX6ajSWAAk+1A7x7rqTmHE32Xg06bWNmSSSTyiOnqs7RzItfrc6YBuL72hwnolMGHcvcHOVPg1tXH4PE03BhayobmNnXE+lpus/n2NbQDqFEODXkOMvcQdgR2BgBZV2Bc2HA6p81t29LjZOvqzBeJcBFxMibbet/3TkNLGMuHaMZZG/Brshxba7qjGkBtNktYNTS8AtPLvYyVNyTjasXto6m3dABEE32abaSL7ys/kzPBe19OzqgDfDALmuaSJJdMgggSOirqOAr1cW4Yem4PD3FttLWuF9zYdvUIZYccpS/AalJJHozI8SX0hJlwADpMmY5nqrCmZG385rP8ADWUVqTGl9fU50axpAbYXgSSD7+ausW8tiBtJPpBmUtjnKMLl4/n/ALBmk5+0XWpm3Tmn8LvCqcXmlOmJcTeLc/grHJ3awXkRNgD06pnTzjLKkgMkJLHbLBEQlwiXXERosTT6SkoiFCEPwkSl6UFCEKtSEbLPOwzhVkbLUpipRBXImuPaPQyV2FhtlLaoTLFSS6y100qAyKyPi6vwVRi8MHnoeo3Vi9kpvwrrGdzfIxjaguDI8Q8QMwUDEavDqOgOaJ0mJkjePT4KPgs/w9YEUq7XAcgYPUy0wfknuOcHTrsLHny9RFu4nYrg2Mwo1OA8zQ4gHqASAVWPDjy2k3aDnklDlo9IZbW1AQ6YMjnZXNSoYmdxsO29l5zynN61GkCys5uk2aHObHcAGOq61w/ntWpSbqqMcdMHyxJOxBnYWWGTE8fbJuU+jI/SDxFQGJPhsmpTLRqERIu9p67lYxmcanlzqTAXG77ki+5+QsFMznhTFsraDSqPc4ktLWOc0gmxLtgfXZWmWfR5i6ka9FEf7nBx+DJ/NOw9KEVyYy3Nmaq1Hag4VItcaJgxtc3HvT1KjVc2Q+ZsbRPWD2XRKv0UnwnEV9VQAloDA1rnAWbJdYG11HZlFSnSbSfh3te0RMamySCZLZHLqhyZoVwi4x5MHWwNR0aiTFhP8um6eBc3qul0uHjUb5mx3Gyg4vhh7fYGodJv8VgtV4D2GEpUquoBrz32Puun3UaoO9/gr2vgTTd5mOB9P1UyhRm8SI5qSzlqBUZCwMe3Xr1Fw5wACY8sdrn1XScGWsI8MBpcdTiB7U7EnnaLlYx2EvPeequchxj3VPDcQYsYBBve/LokdTKWTlDWKKXDOgZVXMnV93um8/x79DnUxLQJJ/RDBMhob4Z77X9xMqRmpBp+HB8wggWMcyqxJxwu3+pi0vUtIouHsAan2lZ2tzhJaYtI5DYLZYfyAAcuSg4PCtbcdI+CleLawm8fumtP/TVvsyzy3ul0WjHyJCMhQsBUvBU6F3MOTfBSObOO10IhCEtEtQRGlGlIKEK8VQjNQLJ4fNnuqFgBgK9w8ndcWDnLwdCWNLySinYtCFNifZTTuPFwZSkVoeCY5i5UbGYoNBPL+WUnG0vDMgWN/wBlR5li2aTqIHODb+6QyylBOL7GsSjLnwZHPcR4r45HkmMDwvh3nzMaXc9ue0wqfPM2Dy4UXlsGakC4/C0Ha/ZUjMxZTgMc9jyIe5rjqPvm+5siw6ae27oLJkTZucf9HWFqew9zCLkNg3O3tA2t81QnL6mFqtZ4p0AjzACYkSI2mE3w1xDWpObTqVzV1tJEm4O7WSRcwO+y1FHEUK9VjasODyIiLncA9lnm9SLUZO0Vj2vlGkY7xGh0nSRYGQT/AETOb1nU8NWeww5jHOaYm4Ei3NS8QSDHwVDxZmDG4SsHO9prmQCJJIIAWWJXNJBZH7SNwrxxUqAiqG+UFz3AGQ3s0d91ssPntGo0OY9r2neCDZcJybFmlUa4eju4cIP5/JW2SY19J7y1n2YcYPrdM6vE4xuBnjqXZ2cYak8cjfewUb/orQTDne+6zGVZ6XCYI7d1pcJmkwCkFOL4kjV45LplXicj8QS5jmmSIMT6gtJEKqr8LvH+WJ7atP5c1vKT53S3NC12WuAN9Po5t/h/FgFzG03G/lJNxy2ET2V1w1hmtA1Rr3dyubmx2vb3LX2ibInYdtRpMAuix59roXib4iF6/wBoTSItHNLpUom8nv8Aoo+ADdIAmQOZPv3VgxoMHmtsK3pMxyPa6GKlINFhvvunWHsmBULjaLTM+vJOOd5trRv+iKLiuV0C0+mO0D5grKVBwbJM9FNldXSpqApmfuDRIIJkyAgggoQp6WXNaZhS20k854TbsS0LNQSNHNvsdp007YKEcX0SX1DBJRdIG7ZH4gzRtOm6I2+fJYbEZjTxg8Bx0PPOJBuJjofXqtRisFSrghwJgi0kXWOzfCObWLaVLS+2ksbFheQRtEbrmuccslu/b9h+MNi4MNmtAku0tLKckW3MSLxtzWd+rhht8SttxA99OkX1nVGeISHlrLfdnU0kXNiSN42UTKOG6WIpGqK79MwD4Zpg2ufPuL7hMPJGKtg7bdIhcEZcK9Z5I81PQ5lzAkuBJAseUei3+Jy1rRIABHMAAiOaVk2U0cOwNpkbjUWkXvub3VxiaIdAm3NcrUZfUlaGccNqKfMuIgymHVGvvIJY3U2REiZsbhcoxT3PeXuJlxJMmTczC7Njn0aVEipHhiTe4/crn9d+HqA1KODe8GQPPoHQ+USQmNJkS8AZY2ZvDzIHO3vXQuD8HqlpaLRvu5xEud+g9FnaeZYcU5fl9SAYJY7VBEHcw6bha3J+JcPpp1fCq0gBA1NvAteCSVWsm5RSSJiVGnw+AA5Qlvw7fQhLo45tRgcwgg7EXCaFc3tvv8FzhhWyZhqunc/FTKtYCLxPNVdDk71/gU7W2o2HbEj9lpGTqkZzjzZIpkX5o8LUAHruOkpih5SWzt+XJSHMaTEkW5LWF9oykkIqEapgdJUqi+yrvAI3M/JOAmPXn25wijNpvgkoJrsRhhpqOBO5Lh0IcZt81NBJ8o57KMPM4BtzEf1/JW9GgG+vVbaTTuXHgyzZEvyLpMgAJaKUJXZSSVIQbsNCUmUcqyCpQSZQUIUIe47lP06aUympNOmqSIFSpIY/y0yVKY1HWpBzS08xCGabi0goOpJsz2WiQX7Ty/VNOcfFN7EQI5FSWGJEQRYhN1GNI1ACZC4kk4xS+jqXbszWeZIMQ7wag1MJBPQBpBM/BOY8BrXCwbyHpy7cle4xhMOafd153UF9AvnUAByiT/ZYSb+JpGuzO1aLXS5hGkibdxPJVtR72tMOqDpBMLWvydrB5bGSSQBeRFwma2XAxyA5d+qDoOznmaF7hDvEd6kn0iSq3CPr0XaqWodRu0+oO66diMqplszfYBQcRlY0FwAtO21lrHNSoBwtlDh+Jmhn2uGIcDJLC0tJ6wSEmvxVQcIFKpPfSL+upTcHl4dS1ESJMe/l3VbiOHQTLLGdyFSeNvlFvdQ/9H+PcytUpOkMqF1RgJkBxMlo9QT/AOq34rfHosFh8pdScC4tIiRH8srJmZVW2YdUDmJ9JPNXkam7RUOFRqw88jCl4epsue0s0xUyXuifws/QKfSzrEbAA+rf3WTpB9m3qVQHA8z06d074sHf9ljqeKxDj5nQewH9FIxGCqk0j4ji2Tqv2EW+KpzrknpryaOtjmyLz6XSg57j0HRM4fDtEDnHT9VMoO5QfeIRxbbM3SXBLwliFaKtw48w9VYldrRfBnO1HyDQSEE4LipQlJQUIKlBJQUIMspp1oRShKhBzUj1JuUTnQFGQhZjh2k6hZ3M9fVVTaoaYdY7RyPMH81aPduVQ1cfSdW8IVB4kGBN7b/quRnqUrR0sPCpk9hEx1uOyaEwR1VdUzJjamh5A9bSpVPFiABqNvX5pJjO2h2i06AHEl0XO1wmauHDrS4HkeYTrHyZiI/nvRY2s2kA9/OAB1lBL7LXZBqYF8AyHETaNMj+qMZeHeb7hFmQAB1nvulMzPUCQxwHQ2NvVNHE1PMS2WnYA3Ha/wCiy4C9wb8MQ0NDAIAEdOwCzWKa4ONogwSeV1o2Ytx+6YO0qRRy4GmHPLXE3da09pvZFGyPjsxlWnWjSNMdYScJg6gE6z+QK2VPK6cny3P857BOMy5lpHv7o7YPBnsPhnNBLxM9JPcKQzDPNwPL33C0ApNLiyNoPMfP3JNeo2nGt0bxJHr77BC0WmNZXhfeY3gKyOFFgQOxO4teComHrQ6RGkkyfQchCmV8W0ESY/f+yKFbeTOe6+B6jS0hJxjjEsie/wDPVQ8Ti22F3HkNj2T2HBNyfRv9Ua6oDbXLLTLhbUd/yUwlVAxBZcKzpuMCd12dJki4bV4EM8GpW/ItBJQlN2YCkJSdSKVCCkEmUahBKCCMBUQAUTGVSDHKFMUPMosYWOpv020bYPmUOfZp4NNzybALkuT5mXY+hUgyaouPaOo6fhBXTuI8o+ssdTLiAYIIjfkoHDfBlDCua9411Q6WuJ9gdu65uPIlF7ux6S+ixzHJA90kSTME7BZrMsNXw8mjUIH4bFvwK1v/AF2iXlpqNaZIAJAn+XTeYUmP+fyslHXcTeLfUjI0eNalIRXok/7qZEHrIdEfEo/8c4Wq5ofWNI7eHUYQLfidBA9ZUvHZPq1CxHKyz+Y8MMeILJ/n5q4vHL5fwW1JfE2+XZtRqj7Kqx//ABc0+uylVHyCGgSYO8DcT8pXIanA15bqEc9R+SmYetiKA8IVKg07HUXD/wCyuWLG/hL+AVKS+SOmMwrdjPXfbsFLolosHGDyMRPwXIcTxRjGSBVk8pYyfyVceNsc1zS6rLemhg+elHDSSl5QMs0V9ncquIDb7ptmaUwRL27x7QXGsyxFTEN1Px5c0gQyXWnk5jLD1KqamS6C3w3ioSL6AZEEbwto6P8A3fwA836HeK2MaCb3NxHQ7bKsrZs0OBqPDeZ52HYAlcQzOo+lUFJlWrAb52y9gDj7bdM379Vp+F8I80zq2JGnuCBNkGTSbI7mw4Z7e1I6dlmfB5kDyXgwZ+G6lmg+q6Q4hhvBF55zKLh7AgMHl27Kn4u4pfRqihRDWvADnPqDywdg0Tc90vixSycIOeRLpDJ4qY2u6kGnQxxa59rkWMDotjRrtLQ5pEciuOOri5i5JJN9zdaXhzNiWik51hJg82xsPQpvNh2xuJnB7nTN1jsTDbCRzV5gSfDbO8BU2S0m1WhzhEbNO/vCvUxocTSc35FdXNfBeBZKSUUopT4kGSilESkOcoEkOakEzKChCRKOUiUNSsqhyU1iqWpsc9wj1ItaGSUlTCjw7Rn8TXDLu/sVnuIOIQxjoPn2HI+votPnuA1+du43HXuO65fxph5e2q2dOmHjoRsey5PpJZdsujpxluhuXZUPwhqCo46SR5nTzBMEjrErQcJ8SO108LUBeXECjUJiAASWvO5gCx52B6rI4lzm6Q0Ey4BxmzRz78gmMSTT0upuIcyCw2kFpkO6btH8KdyYozjTMYyadncXU2m6KpghuoWTZozE4elWa4HW3zf8hZ49xBCm1qTw2W3jlzXElBptUNp8WMVMIDyVNj8pYCTa4U92ZubvTcsTxjxG8OhrIcRDTJETuSP0RYsbk6RJSpWyhzioxjz5dTvut/CO8KG3KX4hkBoL3aiwNEEBu5PUfNRtBAuTqcbkrScPuezS+kRrbMBwkOB9oGOxK7EMe1cdijd9mdxOQYmhBNN0bS3zbenotJwA9ra5NWm8HTDZY6Op9Ngn8FxE7CnTUDXM1QxxmGkmeuy3GXUQ9rajom5EAc+aW1GaSW1rsKGOzE5pwKcRiatd1XS17pDQ24bAAEkxMAcltckyehQphom3N2/qrrDYVpEH3KTQBaS00/KNnSDKTnknkSUnx/76NVGMehzCuZpgFRM2ykVPMGgkBzQYBMOEGxsdlL1MkkACN7XsgzFCL26K4S29guLfJybijh92Ge3RqdTftY+U28pPXorrJ8jc2mx0fabm12ifZ+S2GNxrfZMT3QpMAEtMnminqJSjRoobXZAwNNwcHBxHZa7DVJF91nPFZqjnKu8A6wU/w/I45NvhmerW6FkxESjJTZXdOUAuSS5GQkEKF2HqQSdKChY7rRa02goWOSiSZRgoSxNd1lTZrgaTwdbGmReQFZ4h1wOSj1wHC/JcnPL3s6GFVFHIM+yWrQf5Wl1MzDwJgHYEDYqmbllSsC27RYAkH7xjyt5rsWNw9gOZVTXwAF+aJaqVUF6Ssh5HgBh8OKFCZa6SX/e1Eajbt+S1mHryO/MLF16jxsdhYpbMzrNGolsAc7H4pWVt2bcVRs6tQELkfGWFcMWdQsRIiYO0n12Wk/xY9wMUiYtqbEW3mSPkq7GY9mI8tamRHsPbuOshHhk4TtgTimqRkMQZWt4UySvUptxFI0yNRGguAd5bGxt8SFS4jKjEscHDmDLCPcbfNOZPRfTfqbWZSPX2ifcAQV0XmjVxaF9j8ouX8M1q9U0n0nsaIJc9hIgEGAQYJIHIlbjL6LW0wKcaNrXWcwHGlOPD+sGo8DzEt03Fp2H5J13EzRcXJ6AzNrx7lzs8pzfKGcail2bHBvAF/wCdk99bAvKxmEzmvUs2mR3NlZnAVKlqjrcw23x5rJNpBSURWO4hpeIWtdLuekar94S8JVqVZEaB8/2UnB5Ixgs0BW1HDgDZTbbM3krhGL4zqtw9EuA82zTN56rIcP5hWpjxQ5xm5kkg9QtT9KeGLcOCDdz2tE89XLtsq3DcKYpuHMFhIg6B97rBPNOafZt9/kzm3fBc5bi/FdrZzPmHRbPLnzEct1zLA4nE4DS+rSAY90GYLtuy6TkeKbVYKrdnCUOLT7c6afDKy5W8b4LQlBEEa7RzAIoSmpUKEG4QTsIlCEYoJZakOahDBKOU2jlCWNYh0XUWo6Bq7qTXVTiq2kFrtjsVz9Zhb98RzBNfFkyrTk+vNV2JO49QCpragLWxtb90KTR7+65zfNDSKDMMOPDDoJtYDc+nqqZ2UVHsuImLb/Hp7ltqlETPuSHUeUfsqsIz4y8EQGx0hEclBERc25fqtE2kJI52R406acxfl+yBslmTxWDpMIY4Enaf5zVHmvhU9TmNJa0kOMGBHOVLw7qtesS+A1pOoGRMTYdpV2/EYbG0fCDQ9rdOtolpBG0REgwRM3WuGNu30Zzl4OXYan41dzqNRjSYGkwJgb35LZ5ZQdQ/z2sIMDxGXgn7p6Ks4l4cp4Y03tZ9k+QRuWuvpEm5EX7QVGwGIOh9Nr4a4NGg2mDII966GTHvjcTCDpnUsM1oaC3Y81ZYNwO/Jc/yTNKxH1fw3GIiDvaR7iI2WxwTKgYC4R/tNyua9ylRu6rkl59jzQouexup5LWMb1c9wa2e0mfcrLC3AJ3j+6zlbDuq12Oc9xpsOprRAbqgiXczE7beq0VCoAmvb5F6fghZ9kVPFUzSreZh5XBnkQRcFRchy51AGiXue1phrnbxAsTzV8HprUBM9VlOPK5DTZExuXsqsLKjQ5p5G4TmVYRlJuimIa2wHRCrWAB9VLoC3qmtNFynfhGeZ1EXCNBBdZCLAgggrKD1I0lBQgZakwoucZxRwzdVZ4bOw3J9APzVHgePMFUdp1uYSYBe2Gn/AMhIHvhVaCUZPlGkLElzE4DNwlaVKKsh1KZUDF4cOEEK7LE2+gChcQ1OjFPpVaP+WZb+E/oeSl4LNWPs4w8ciLq+r4CVRZjkGq8X5EJLNpVP8jePPRONTULEe+35p0Ve0HmsnXpYuj7DtYHJwk/HdKZxKBIrU3sPpqb8Rf5Lnz02SIwpxkX/ANdaahADrW9k7jeO3dKxFUPBadj7ll62f02iaTmAukbzAt92eZT+XY4lxc54dO4+6I2j91h6clyzWl4KniClVouJY6GumfxD0+CyOU5i+hUD6bi3k7YyJ2IK6ri6VOsCx0T25LnfE+TeC/UwGJM2sOjvROaScV7WuxfKm+Sy4i4lFakaUSCAZtuILYHuPxWTCm4LKa1XzNYYP3jYdNyrrKsvw1CoHYqqHuBBFNgc8f8AkWgzfknt0IKkY02a/g/BFrQ90mQAOUAW90q9xHTqqA8UUWiGCqR/tpvO/KSEmln+r/t1hG32bv6Lm+nN80bNp+S6oMDOU8vVOUsQ65dYAnlyCqMJmFV5kYer0BLQ3/8ARVtQo4h4ILW0wbXOo/AW+av/AC+Wb4RN8I+SdRxjYlNNxrX+Vo1H5A+qXQydo9ol3Y7fBT6VENsAAE1j0T/vZjLUR/tRHoYfYuiVMagAjhPwgoqkKym5O2HKCKEYC1MwIJQahpUIJQStKNQhzX6Sf8yp/wAGLnw29yCCwl2x2PxR23gv/Q4f/h+pV+ggtl0KS7YECggrBElNvQQVMIg4tZLOOaCCXmb4zEZjuVTOQQWZsWGRf549Fo6H+oP/AMbv1QQSuT5fsaQ6LrHf6f8A9U1lKCCY0vRhn7NJQ2U9iJBOLsXfkkUlIaggrK8igjQQUKAgggiKYoIwggoUGgggoQCCCChD/9k=;" vertex="1" parent="7">
                    <mxGeometry x="520" y="120" width="250" height="250" as="geometry"/>
                </mxCell>
            </root>
        </mxGraphModel>
    </diagram>
</mxfile>